<svg xmlns="http://www.w3.org/2000/svg" width="64" height="64" viewBox="0 0 64 64">
  <defs>
    <style>
      .cls-1 {
        fill: #fff;
        fill-rule: evenodd;
      }
    </style>
  </defs>
  <path id="Github" class="cls-1" d="M26.26,38.061c0,2.225-1.161,5.865-3.908,5.865s-3.908-3.64-3.908-5.865S19.6,32.2,22.352,32.2,26.26,35.836,26.26,38.061Zm31.3-5.375A23.058,23.058,0,0,1,55.7,42.8c-4.036,8.153-15.133,10.562-23.078,10.562-8.072,0-19.83-2.313-24.026-10.562A22.774,22.774,0,0,1,6.441,32.686a18.3,18.3,0,0,1,4.42-12.092,16.657,16.657,0,0,1-.82-5.194A10.6,10.6,0,0,1,11.6,9.886c4.824,0,7.913.958,11.587,3.832a40.815,40.815,0,0,1,9.446-1.064,36.753,36.753,0,0,1,8.562.979c3.621-2.842,6.709-3.747,11.48-3.747A10.5,10.5,0,0,1,54.226,15.4a16.422,16.422,0,0,1-.82,5.131,18.333,18.333,0,0,1,4.153,12.155h0Zm-6.848,5.375c0-4.673-2.843-8.792-7.827-8.792a43.815,43.815,0,0,0-5.964.639,31.309,31.309,0,0,1-4.8.341,31.5,31.5,0,0,1-4.8-.341,43.106,43.106,0,0,0-5.964-.639c-4.984,0-7.828,4.119-7.828,8.792,0,9.346,8.562,10.782,16.017,10.782h5.133C42.16,48.844,50.711,47.417,50.711,38.061Zm-8.8-5.865c-2.748,0-3.908,3.64-3.908,5.865s1.161,5.865,3.908,5.865,3.908-3.64,3.908-5.865S44.662,32.2,41.915,32.2Z"/>
</svg>
