<svg xmlns="http://www.w3.org/2000/svg" width="64" height="64" viewBox="0 0 64 64">
  <defs>
    <style>
      .cls-1 {
        fill: #fff;
        fill-rule: evenodd;
      }
    </style>
  </defs>
  <path id="Resume" class="cls-1" d="M49.455,21.43V51.447a4.34,4.34,0,0,1-4.338,4.339H19.085a4.34,4.34,0,0,1-4.339-4.339v-37.6a4.34,4.34,0,0,1,4.339-4.338H37.533A4.339,4.339,0,0,1,40.6,10.782l7.583,7.584A4.323,4.323,0,0,1,49.455,21.43ZM37.885,14.2v6.878h6.878Zm7.231,37.248V25.416h-9.4a2.164,2.164,0,0,1-2.169-2.169v-9.4H19.085v37.6H45.116Z"/>
</svg>
